<svg
  width="300"
  height="300"
  viewBox="0 0 300 300"
  fill="none"
  xmlns="http://www.w3.org/2000/svg"
>
  <circle cx="150" cy="150" r="150" fill="#FFAA00" />
  <path
    d="M82.1001 51.6C57.2001 56.1 36.8001 79 32.7001 107.3C31.5001 115.3 31.9001 127 33.7001 134.6C39.0001 157.9 53.6001 174.9 74.5001 182.1L79.5001 183.8L79.7001 205.4L80.0001 227L81.3001 228.1C82.3001 228.9 83.2001 229.2 84.6001 229.2C86.6001 229.2 86.6001 229.2 109.7 206.1L132.8 183H142.3C152.3 183 158.3 182.3 164 180.7C183 175.2 198.8 159.6 205.7 139.8C210.8 125.2 210.9 108.9 205.9 94.5C198.4 72.1 179.6 55.3 157.9 51.6C152.4 50.6 87.5001 50.6 82.1001 51.6ZM156.8 61.6C178 65 194 81.5 198.6 104.5C199.6 109.6 199.5 124.9 198.4 129.9C195.2 145 187.4 157 176 164.6C171.3 167.7 168 169.3 162.6 170.8C156.9 172.5 151.4 173 139.4 173H128.7L109.2 192.4L89.7001 211.9V195.5C89.7001 178.1 89.5001 176.6 87.4001 175.4C86.9001 175.1 84.4001 174.3 82.0001 173.7C65.8001 169.6 54.5001 160.4 47.7001 146.1C41.1001 132 40.2001 112.1 45.4001 96.2C48.8001 85.9 55.8001 76 63.9001 70C69.6001 65.8 78.4001 62.2 85.2001 61.2C86.0001 61.1 101.5 61 119.6 61C146.5 60.9 153.2 61 156.8 61.6Z"
    fill="black"
  />
  <path
    d="M77.6 91.8C76 92.5 74.9 94 74.6 96.1C74.4 97.8 74.5 98.2 76 99.7L77.7 101.4H119.4H161.2L162.4 100.3C164.9 98.1 164.7 94 162 92.3C160.5 91.4 159.4 91.3 119.4 91.4C97 91.4 78.1 91.6 77.6 91.8Z"
    fill="black"
  />
  <path
    d="M76.0002 113.6C74.5002 115.1 74.3002 115.5 74.6002 117.3C74.7002 118.5 75.3002 119.7 76.1002 120.5L77.3002 121.7L119 121.8C159.6 121.9 160.7 121.9 162.1 120.9C164.8 119.2 165 115.1 162.5 112.9L161.3 111.9H119.5H77.7002L76.0002 113.6Z"
    fill="black"
  />
  <path
    d="M77.5 132.7C75.9 133.4 74.5 135.5 74.5 137.2C74.5 139 75.9 141.1 77.6 141.8C80 142.8 119.1 142.8 121.5 141.8C123.2 141.1 124.6 139 124.6 137.2C124.6 135.4 123.2 133.3 121.5 132.6C119.1 131.7 79.8 131.7 77.5 132.7Z"
    fill="black"
  />
  <path
    d="M220.9 123.7C218.6 124.9 217.6 127.7 218.7 130C219.8 132.4 220.9 132.9 226.1 133.3C239.7 134.5 250.6 143.3 255.3 156.7C258 164.5 258.4 174.6 256.4 182.5C253.6 193.5 246.1 203.2 236.7 207.9C233.6 209.4 227.9 211.1 225.4 211.1C224.4 211.1 222.9 211.4 221.9 211.8C219.3 212.9 218.8 214.5 218.8 223.8V231.8L209.9 222.9C204.6 217.6 200.5 213.9 199.7 213.7C199 213.6 193.7 213.4 187.8 213.3C178 213.2 176.8 213.1 173.8 212C167.6 209.9 162.1 205.6 156.6 198.7C153.6 195 152.2 194.1 149.8 194.5C145.8 195.3 144.8 199.5 147.7 203.6C150.2 207.2 157.1 213.9 161 216.4C169.2 221.8 175.2 223.4 187.4 223.4H196.1L208.8 236C219.6 246.7 221.7 248.7 223.2 248.9C225.1 249.2 227.5 248.2 228.4 246.8C228.7 246.2 228.9 241 228.9 233.4C228.9 223.9 229 220.9 229.5 220.8C229.8 220.7 231.6 220.2 233.4 219.6C245.8 215.8 256.8 205.8 263 192.7C268.3 181.5 269.2 169.5 265.8 157.7C260.2 138.4 244.3 124.6 225.8 123C223.3 122.9 222.3 123 220.9 123.7Z"
    fill="black"
  />
</svg>
