<svg width="50" height="50" viewBox="0 0 50 50" xmlns="http://www.w3.org/2000/svg">
  <!-- preloader -->
  <g id="preloader">
    <path fill="none" stroke="#FF156D" stroke-width="15" stroke-linecap="round" stroke-dasharray="300 385" stroke-dashoffset="0" d="M275 75c0 31-27 50-50 50-58 0-92-100-150-100-28 0-50 22-50 50s23 50 50 50c58 0 92-100 150-100 24 0 50 19 50 50Z">
      <animate attributeName="stroke-dashoffset" calcMode="spline" dur="2" values="685;-685" keySplines="0 0 1 1" repeatCount="indefinite">
      </animate>
    </path>
  </g>

  <!-- logo -->
  <g id="logo" transform="translate(150, 0)">
    <path fill="#000000" d="M60.1,29.6C35.2,34.1,14.8,57,10.7,85.3c-1.2,8-0.8,19.7,1,27.3c5.3,23.3,19.9,40.3,40.8,47.5l5,1.7l0.2,21.6L58,205l1.3,1.1c1,0.8,1.9,1.1,3.3,1.1c2,0,2,0,25.1-23.1l23.1-23.1h9.5c10,0,16-0.7,21.7-2.3c19-5.5,34.8-21.1,41.7-40.9c5.1-14.6,5.2-30.9,0.2-45.3c-7.5-22.4-26.3-39.2-48-42.9C130.4,28.6,65.5,28.6,60.1,29.6z M134.8,39.6C156,43,172,59.5,176.6,82.5c1,5.1,0.9,20.4-0.2,25.4c-3.2,15.1-11,27.1-22.4,34.7c-4.7,3.1-8,4.7-13.4,6.2c-5.7,1.7-11.2,2.2-23.2,2.2h-10.7l-19.5,19.4l-19.5,19.5v-16.4c0-17.4-0.2-18.9-2.3-20.1c-0.5-0.3-3-1.1-5.4-1.7c-16.2-4.1-27.5-13.3-34.3-27.6c-6.6-14.1-7.5-34-2.3-49.9C26.8,63.9,33.8,54,41.9,48c5.7-4.2,14.5-7.8,21.3-8.8C64,39.1,79.5,39,97.6,39C124.5,38.9,131.2,39,134.8,39.6z"/><path fill="#000000" d="M55.6,69.8c-1.6,0.7-2.7,2.2-3,4.3c-0.2,1.7-0.1,2.1,1.4,3.6l1.7,1.7h41.7h41.8l1.2-1.1c2.5-2.2,2.3-6.3-0.4-8c-1.5-0.9-2.6-1-42.6-0.9C75,69.4,56.1,69.6,55.6,69.8z"/><path fill="#000000" d="M54,91.6c-1.5,1.5-1.7,1.9-1.4,3.7c0.1,1.2,0.7,2.4,1.5,3.2l1.2,1.2L97,99.8c40.6,0.1,41.7,0.1,43.1-0.9c2.7-1.7,2.9-5.8,0.4-8l-1.2-1H97.5H55.7L54,91.6z"/><path fill="#000000" d="M55.5,110.7c-1.6,0.7-3,2.8-3,4.5c0,1.8,1.4,3.9,3.1,4.6c2.4,1,41.5,1,43.9,0c1.7-0.7,3.1-2.8,3.1-4.6c0-1.8-1.4-3.9-3.1-4.6C97.1,109.7,57.8,109.7,55.5,110.7z"/><path fill="#000000" d="M198.9,101.7c-2.3,1.2-3.3,4-2.2,6.3c1.1,2.4,2.2,2.9,7.4,3.3c13.6,1.2,24.5,10,29.2,23.4c2.7,7.8,3.1,17.9,1.1,25.8c-2.8,11-10.3,20.7-19.7,25.4c-3.1,1.5-8.8,3.2-11.3,3.2c-1,0-2.5,0.3-3.5,0.7c-2.6,1.1-3.1,2.7-3.1,12v8l-8.9-8.9c-5.3-5.3-9.4-9-10.2-9.2c-0.7-0.1-6-0.3-11.9-0.4c-9.8-0.1-11-0.2-14-1.3c-6.2-2.1-11.7-6.4-17.2-13.3c-3-3.7-4.4-4.6-6.8-4.2c-4,0.8-5,5-2.1,9.1c2.5,3.6,9.4,10.3,13.3,12.8c8.2,5.4,14.2,7,26.4,7h8.7l12.7,12.6c10.8,10.7,12.9,12.7,14.4,12.9c1.9,0.3,4.3-0.7,5.2-2.1c0.3-0.6,0.5-5.8,0.5-13.4c0-9.5,0.1-12.5,0.6-12.6c0.3-0.1,2.1-0.6,3.9-1.2c12.4-3.8,23.4-13.8,29.6-26.9c5.3-11.2,6.2-23.2,2.8-35c-5.6-19.3-21.5-33.1-40-34.7C201.3,100.9,200.3,101,198.9,101.7z"/>
  </g>
</svg>
