<svg xmlns="http://www.w3.org/2000/svg">
  <!-- logo -->
  <g id="logo">
    <path
      d="M5.05655 0.0757181C2.54271 0.530027 0.483176 2.84195 0.0692504 5.69905C-0.0518986 6.50671 -0.0115156 7.68791 0.170208 8.45519C0.705282 10.8075 2.17926 12.5238 4.28927 13.2507L4.79406 13.4223L4.81425 15.603L4.84454 17.7837L4.97578 17.8947C5.07674 17.9755 5.1676 18.0058 5.30894 18.0058C5.51086 18.0058 5.51086 18.0058 7.84297 15.6736L10.1751 13.3415H11.1342C12.1438 13.3415 12.7495 13.2709 13.325 13.1093C15.2432 12.5541 16.8383 10.9791 17.5349 8.98017C18.0498 7.50619 18.0599 5.86058 17.5551 4.40679C16.7979 2.14535 14.8999 0.449261 12.7091 0.0757181C12.1539 -0.0252394 5.60172 -0.0252394 5.05655 0.0757181ZM12.5981 1.08529C14.7384 1.42855 16.3537 3.09435 16.8181 5.41637C16.919 5.93125 16.909 7.4759 16.7979 7.98069C16.4748 9.50514 15.6874 10.7166 14.5365 11.4839C14.062 11.7969 13.7288 11.9584 13.1836 12.1098C12.6082 12.2815 12.0529 12.332 10.8414 12.332H9.76117L7.79249 14.2905L5.82382 16.2592V14.6035C5.82382 12.8468 5.80363 12.6954 5.59162 12.5742C5.54114 12.544 5.28875 12.4632 5.04645 12.4026C3.41094 11.9887 2.27012 11.0599 1.58361 9.6162C0.917293 8.1927 0.826431 6.18364 1.35141 4.57842C1.69467 3.53856 2.40137 2.53908 3.21912 1.93334C3.79458 1.50931 4.68301 1.14587 5.36952 1.04491C5.45028 1.03481 7.01512 1.02472 8.84245 1.02472C11.5582 1.01462 12.2346 1.02472 12.5981 1.08529Z"
      fill="black"
    />
    <path
      d="M4.60215 4.1342C4.44062 4.20487 4.32957 4.35631 4.29928 4.56832C4.27909 4.73995 4.28918 4.78033 4.44062 4.93177L4.61225 5.1034H8.82217H13.0422L13.1633 4.99234C13.4157 4.77024 13.3955 4.35631 13.123 4.18468C12.9715 4.09382 12.8605 4.08373 8.82217 4.09382C6.56073 4.09382 4.65263 4.11401 4.60215 4.1342Z"
      fill="black"
    />
    <path
      d="M4.4408 6.33508C4.28937 6.48652 4.26918 6.5269 4.29946 6.70862C4.30956 6.82977 4.37013 6.95092 4.4509 7.03169L4.57205 7.15283L8.78198 7.16293C12.8808 7.17303 12.9919 7.17303 13.1332 7.07207C13.4058 6.90044 13.426 6.48652 13.1736 6.26441L13.0525 6.16345H8.83245H4.61243L4.4408 6.33508Z"
      fill="black"
    />
    <path
      d="M4.59206 8.26334C4.43052 8.33401 4.28918 8.54602 4.28918 8.71765C4.28918 8.89937 4.43052 9.11138 4.60215 9.18205C4.84445 9.28301 8.79189 9.28301 9.03418 9.18205C9.20581 9.11138 9.34715 8.89937 9.34715 8.71765C9.34715 8.53592 9.20581 8.32391 9.03418 8.25324C8.79189 8.16238 4.82426 8.16238 4.59206 8.26334Z"
      fill="black"
    />
    <path
      d="M19.0695 7.35475C18.8373 7.4759 18.7363 7.75858 18.8474 7.99078C18.9584 8.23308 19.0695 8.28356 19.5945 8.32394C20.9675 8.44509 22.0679 9.33351 22.5424 10.6863C22.815 11.4738 22.8554 12.4935 22.6535 13.291C22.3708 14.4016 21.6136 15.3809 20.6646 15.8554C20.3516 16.0068 19.7762 16.1784 19.5238 16.1784C19.4228 16.1784 19.2714 16.2087 19.1704 16.2491C18.9079 16.3602 18.8575 16.5217 18.8575 17.4606V18.2682L17.9589 17.3697C17.4239 16.8347 17.0099 16.4611 16.9292 16.4409C16.8585 16.4308 16.3234 16.4106 15.7278 16.4005C14.7384 16.3904 14.6172 16.3803 14.3144 16.2693C13.6884 16.0573 13.1332 15.6232 12.5779 14.9266C12.275 14.553 12.1337 14.4622 11.8914 14.5025C11.4876 14.5833 11.3866 15.0073 11.6794 15.4212C11.9318 15.7847 12.6284 16.4611 13.0221 16.7135C13.85 17.2587 14.4557 17.4202 15.6874 17.4202H16.5657L17.8479 18.6923C18.9382 19.7725 19.1502 19.9744 19.3017 19.9946C19.4935 20.0249 19.7358 19.924 19.8267 19.7826C19.8569 19.722 19.8771 19.1971 19.8771 18.4298C19.8771 17.4707 19.8872 17.1678 19.9377 17.1577C19.968 17.1476 20.1497 17.0971 20.3314 17.0366C21.5833 16.6529 22.6938 15.6434 23.3198 14.3208C23.8549 13.1901 23.9457 11.9786 23.6025 10.7873C23.0371 8.83882 21.4319 7.44561 19.5642 7.28408C19.3118 7.27398 19.2108 7.28408 19.0695 7.35475Z"
      fill="black"
    />
    <path
      d="M36.7102 9.54545H34.3068C34.2898 9.34659 34.2443 9.16619 34.1705 9.00426C34.0994 8.84233 34 8.70312 33.8722 8.58665C33.7472 8.46733 33.5952 8.37642 33.4162 8.31392C33.2372 8.24858 33.0341 8.21591 32.8068 8.21591C32.4091 8.21591 32.0724 8.3125 31.7969 8.50568C31.5241 8.69886 31.3168 8.97585 31.1747 9.33665C31.0355 9.69744 30.9659 10.1307 30.9659 10.6364C30.9659 11.1705 31.0369 11.6179 31.179 11.9787C31.3239 12.3366 31.5327 12.6065 31.8054 12.7884C32.0781 12.9673 32.4063 13.0568 32.7898 13.0568C33.0085 13.0568 33.2045 13.0298 33.3778 12.9759C33.5511 12.919 33.7017 12.8381 33.8295 12.733C33.9574 12.6278 34.0611 12.5014 34.1406 12.3537C34.223 12.2031 34.2784 12.0341 34.3068 11.8466L36.7102 11.8636C36.6818 12.233 36.5781 12.6094 36.3991 12.9929C36.2202 13.3736 35.9659 13.7259 35.6364 14.0497C35.3097 14.3707 34.9048 14.6293 34.4219 14.8253C33.9389 15.0213 33.3778 15.1193 32.7386 15.1193C31.9375 15.1193 31.2188 14.9474 30.5824 14.6037C29.9489 14.2599 29.4474 13.7543 29.0781 13.0866C28.7116 12.419 28.5284 11.6023 28.5284 10.6364C28.5284 9.66477 28.7159 8.84659 29.0909 8.18182C29.4659 7.5142 29.9716 7.00994 30.608 6.66903C31.2443 6.32528 31.9545 6.15341 32.7386 6.15341C33.2898 6.15341 33.7969 6.22869 34.2599 6.37926C34.723 6.52983 35.1293 6.75 35.4787 7.03977C35.8281 7.3267 36.1094 7.6804 36.3224 8.10085C36.5355 8.52131 36.6648 9.00284 36.7102 9.54545ZM40.1715 11.3182V15H37.8192V6.27273H40.0863V9.69886H40.1545C40.3022 9.28125 40.5479 8.95597 40.8917 8.72301C41.2354 8.48722 41.6488 8.36932 42.1317 8.36932C42.5948 8.36932 42.9968 8.47443 43.3377 8.68466C43.6815 8.89489 43.9471 9.18466 44.1346 9.55398C44.3249 9.9233 44.4187 10.3466 44.4158 10.8239V15H42.0636V11.3182C42.0664 10.9943 41.9854 10.7401 41.8207 10.5554C41.6587 10.3707 41.4272 10.2784 41.1261 10.2784C40.9357 10.2784 40.7681 10.321 40.6232 10.4062C40.4812 10.4886 40.3704 10.608 40.2908 10.7642C40.2141 10.9176 40.1744 11.1023 40.1715 11.3182ZM47.4009 15.1023C46.9833 15.1023 46.614 15.0341 46.293 14.8977C45.9748 14.7585 45.7248 14.5483 45.543 14.267C45.3612 13.9858 45.2702 13.6278 45.2702 13.1932C45.2702 12.8352 45.3313 12.5298 45.4535 12.277C45.5756 12.0213 45.7461 11.8125 45.9648 11.6506C46.1836 11.4886 46.4379 11.3651 46.7276 11.2798C47.0202 11.1946 47.3356 11.1392 47.6737 11.1136C48.0401 11.0852 48.3342 11.0511 48.5558 11.0114C48.7802 10.9687 48.9421 10.9105 49.0415 10.8366C49.141 10.7599 49.1907 10.6591 49.1907 10.5341V10.517C49.1907 10.3466 49.1254 10.2159 48.9947 10.125C48.864 10.0341 48.6964 9.98864 48.4918 9.98864C48.2674 9.98864 48.0842 10.0384 47.9421 10.1378C47.8029 10.2344 47.7191 10.3835 47.6907 10.5852H45.5259C45.5543 10.1875 45.6808 9.82102 45.9052 9.4858C46.1325 9.14773 46.4634 8.87784 46.8981 8.67614C47.3327 8.47159 47.8754 8.36932 48.5259 8.36932C48.9947 8.36932 49.4151 8.42472 49.7873 8.53551C50.1594 8.64347 50.4762 8.79545 50.7376 8.99148C50.9989 9.18466 51.1978 9.41193 51.3342 9.6733C51.4734 9.93182 51.543 10.2131 51.543 10.517V15H49.3441V14.0795H49.293C49.1623 14.3239 49.0032 14.5213 48.8157 14.6719C48.631 14.8224 48.4194 14.9318 48.1808 15C47.945 15.0682 47.685 15.1023 47.4009 15.1023ZM48.168 13.6193C48.3469 13.6193 48.5146 13.5824 48.6708 13.5085C48.8299 13.4347 48.9592 13.3281 49.0586 13.1889C49.158 13.0497 49.2077 12.8807 49.2077 12.6818V12.1364C49.1452 12.1619 49.0785 12.1861 49.0075 12.2088C48.9393 12.2315 48.8654 12.2528 48.7859 12.2727C48.7092 12.2926 48.6268 12.3111 48.5387 12.3281C48.4535 12.3452 48.364 12.3608 48.2702 12.375C48.0884 12.4034 47.9393 12.4503 47.8228 12.5156C47.7092 12.5781 47.6239 12.6562 47.5671 12.75C47.5131 12.8409 47.4862 12.9432 47.4862 13.0568C47.4862 13.2386 47.5501 13.3778 47.6779 13.4744C47.8058 13.571 47.9691 13.6193 48.168 13.6193ZM56.5703 8.45455V10.1591H52.2578V8.45455H56.5703ZM53.093 6.88636H55.4453V12.8949C55.4453 12.9858 55.4609 13.0625 55.4922 13.125C55.5234 13.1847 55.5717 13.2301 55.6371 13.2614C55.7024 13.2898 55.7862 13.304 55.8885 13.304C55.9595 13.304 56.0419 13.2955 56.1357 13.2784C56.2322 13.2614 56.3033 13.2472 56.3487 13.2358L56.6896 14.8892C56.5845 14.9205 56.4339 14.9588 56.2379 15.0043C56.0447 15.0497 55.8146 15.0795 55.5476 15.0938C55.0078 15.1222 54.5547 15.0668 54.1882 14.9276C53.8217 14.7855 53.5462 14.5625 53.3615 14.2585C53.1768 13.9545 53.0874 13.5739 53.093 13.1165V6.88636ZM57.6367 15V6.27273H60.006V9.68182H63.1424V6.27273H65.5117V15H63.1424V11.5909H60.006V15H57.6367ZM70.9151 12.1364V8.45455H73.2674V15H71.0344V13.7557H70.9663C70.8242 14.1733 70.5756 14.5 70.2205 14.7358C69.8654 14.9687 69.4435 15.0852 68.9549 15.0852C68.4975 15.0852 68.0969 14.9801 67.7532 14.7699C67.4123 14.5597 67.1467 14.2699 66.9563 13.9006C66.7688 13.5312 66.6737 13.108 66.6708 12.6307V8.45455H69.0231V12.1364C69.0259 12.4602 69.1083 12.7145 69.2702 12.8991C69.435 13.0838 69.6651 13.1761 69.9606 13.1761C70.1566 13.1761 70.3256 13.1349 70.4677 13.0526C70.6126 12.9673 70.7234 12.848 70.8001 12.6946C70.8796 12.5384 70.918 12.3523 70.9151 12.1364ZM74.4297 15V6.27273H76.782V9.59659H76.8161C76.9013 9.375 77.0263 9.17187 77.1911 8.98722C77.3558 8.79972 77.5604 8.65057 77.8047 8.53977C78.049 8.42614 78.3331 8.36932 78.657 8.36932C79.0888 8.36932 79.4993 8.48438 79.8885 8.71449C80.2805 8.9446 80.5987 9.30682 80.843 9.80114C81.0902 10.2955 81.2138 10.9375 81.2138 11.7273C81.2138 12.483 81.0959 13.1094 80.8601 13.6065C80.6271 14.1037 80.3146 14.4744 79.9226 14.7188C79.5334 14.9631 79.1058 15.0852 78.6399 15.0852C78.3331 15.0852 78.0589 15.0355 77.8175 14.9361C77.5788 14.8338 77.3743 14.696 77.2038 14.5227C77.0362 14.3466 76.907 14.1477 76.8161 13.9261H76.7649V15H74.4297ZM76.7308 11.7273C76.7308 12.0455 76.772 12.321 76.8544 12.554C76.9396 12.7841 77.0589 12.9631 77.2124 13.0909C77.3686 13.2159 77.5547 13.2784 77.7706 13.2784C77.9865 13.2784 78.1697 13.2173 78.3203 13.0952C78.4737 12.9702 78.5902 12.7926 78.6697 12.5625C78.7521 12.3295 78.7933 12.0511 78.7933 11.7273C78.7933 11.4034 78.7521 11.1264 78.6697 10.8963C78.5902 10.6634 78.4737 10.4858 78.3203 10.3636C78.1697 10.2386 77.9865 10.1761 77.7706 10.1761C77.5547 10.1761 77.3686 10.2386 77.2124 10.3636C77.0589 10.4858 76.9396 10.6634 76.8544 10.8963C76.772 11.1264 76.7308 11.4034 76.7308 11.7273Z"
      fill="black"
    />
  </g>

  <!-- vk -->
  <g id="vk">
    <path
      d="M347.506,240.442c-7.91-9.495-16.899-18.005-25.592-26.235c-3.091-2.927-6.287-5.953-9.368-8.962
      c-8.845-8.648-9.167-11.897-2.164-21.72c4.845-6.771,9.982-13.551,14.95-20.108c4.506-5.949,9.166-12.101,13.632-18.273l0.917-1.269
      c8.536-11.811,17.364-24.024,22.062-38.757c1.22-3.887,2.501-9.607-0.428-14.39c-2.927-4.779-8.605-6.237-12.622-6.918
      c-1.987-0.337-3.96-0.383-5.791-0.383l-55.901-0.04l-0.462-0.004c-8.452,0-14.148,3.983-17.412,12.178
      c-3.116,7.83-6.539,16.168-10.445,24.096c-7.773,15.787-17.645,33.97-31.93,49.135l-0.604,0.645
      c-1.687,1.813-3.598,3.866-4.995,3.866c-0.214,0-0.447-0.041-0.711-0.124c-2.959-1.153-4.945-8.316-4.855-11.648
      c0.001-0.046,0.002-0.092,0.002-0.138l-0.039-64.61c0-0.224-0.016-0.446-0.045-0.668c-1.422-10.503-4.572-17.041-16.474-19.372
      c-0.316-0.063-0.639-0.094-0.961-0.094h-58.126c-9.47,0-14.688,3.849-19.593,9.61c-1.324,1.54-4.08,4.746-2.714,8.635
      c1.386,3.947,5.885,4.791,7.35,5.065c7.272,1.384,11.371,5.832,12.532,13.604c2.027,13.496,2.276,27.901,0.784,45.334
      c-0.416,4.845-1.239,8.587-2.595,11.784c-0.315,0.746-1.432,3.181-2.571,3.182c-0.362,0-1.409-0.142-3.316-1.456
      c-4.509-3.089-7.808-7.497-11.654-12.942c-13.084-18.491-24.065-38.861-33.575-62.288c-3.527-8.624-10.114-13.452-18.556-13.594
      c-9.276-0.141-17.686-0.209-25.707-0.209c-8.764,0-16.889,0.081-24.823,0.246C8.914,83.74,4.216,85.776,1.744,89.676
      c-2.476,3.903-2.315,9.03,0.479,15.236c22.366,49.723,42.645,85.876,65.755,117.228c16.193,21.938,32.435,37.123,51.109,47.784
      c19.674,11.255,41.722,16.727,67.402,16.727c2.911,0,5.921-0.071,8.956-0.213c14.922-0.727,20.458-6.128,21.158-20.657
      c0.333-7.425,1.145-15.212,4.795-21.853c2.304-4.184,4.452-4.184,5.158-4.184c1.36,0,3.046,0.626,4.857,1.799
      c3.248,2.12,6.033,4.96,8.316,7.441c2.149,2.357,4.274,4.738,6.401,7.12c4.59,5.141,9.336,10.456,14.294,15.497
      c10.852,11.041,22.807,15.897,36.538,14.843h51.252c0.109,0,0.219-0.004,0.328-0.011c5.107-0.337,9.53-3.17,12.135-7.772
      c3.227-5.701,3.162-12.974-0.174-19.46C356.718,251.867,351.808,245.601,347.506,240.442z"
    />
  </g>
</svg>
